<svg width="255" height="84" viewBox="0 0 255 84" fill="none" xmlns="http://www.w3.org/2000/svg">
<rect x="101.934" y="24.8201" width="7.95847" height="57.6133" transform="rotate(-30 101.934 24.8201)" fill="#D9D9D9"/>
<rect x="99.8633" y="7.34058" width="6.9252" height="73.8305" transform="rotate(-30 99.8633 7.34058)" fill="#4F5D75"/>
<rect x="105.256" y="27.4246" width="7.36758" height="50.3522" transform="rotate(30 105.256 27.4246)" fill="#D9D9D9"/>
<rect x="110.883" y="4.77246" width="6.9252" height="72.8068" transform="rotate(30 110.883 4.77246)" fill="#4F5D75"/>
<rect x="102.844" y="1.4248" width="8.64265" height="12.3283" transform="rotate(30 102.844 1.4248)" fill="#4F5D75"/>
<rect x="102.844" y="1.4248" width="8.64265" height="12.3283" transform="rotate(30 102.844 1.4248)" fill="#4F5D75"/>
<rect x="106.113" y="4.32129" width="8.64265" height="13.4215" transform="rotate(-30 106.113 4.32129)" fill="#4F5D75"/>
<rect x="106.113" y="4.32129" width="8.64265" height="13.4215" transform="rotate(-30 106.113 4.32129)" fill="#4F5D75"/>
<rect x="139.519" y="60.7756" width="8.64265" height="10.9141" transform="rotate(15 139.519 60.7756)" fill="#4F5D75"/>
<rect x="139.519" y="60.7756" width="8.64265" height="10.9141" transform="rotate(15 139.519 60.7756)" fill="#4F5D75"/>
<rect x="128.109" y="71.1912" width="8.64265" height="8.75345" fill="#4F5D75"/>
<rect x="128.109" y="71.1912" width="8.64265" height="8.75345" fill="#4F5D75"/>
<rect x="80.4629" y="71.2466" width="8.64265" height="8.75345" fill="#4F5D75"/>
<rect x="80.4629" y="71.2466" width="8.64265" height="8.75345" fill="#4F5D75"/>
<rect x="69" y="61.7656" width="8.64265" height="13.4156" transform="rotate(-15 69 61.7656)" fill="#4F5D75"/>
<rect x="69" y="61.7656" width="8.64265" height="13.4156" transform="rotate(-15 69 61.7656)" fill="#4F5D75"/>
<path d="M6.7 72C5.7 72 4.85 71.65 4.15 70.95C3.45 70.25 3.1 69.4 3.1 68.4V40.55C3.1 39.5833 3.45 38.75 4.15 38.05C4.85 37.35 5.7 37 6.7 37H18.05C19.05 37 19.9 37.35 20.6 38.05C21.3 38.75 21.65 39.5833 21.65 40.55V48.35L17 47.3V43.4C17 42.9 16.8167 42.4833 16.45 42.15C16.1167 41.7833 15.7 41.6 15.2 41.6H9.55C9.05 41.6 8.61667 41.7833 8.25 42.15C7.91667 42.4833 7.75 42.9 7.75 43.4V65.55C7.75 66.05 7.91667 66.4833 8.25 66.85C8.61667 67.1833 9.05 67.35 9.55 67.35H15.2C15.7 67.35 16.1167 67.1833 16.45 66.85C16.8167 66.4833 17 66.05 17 65.55V60.7H12.4L13.45 56.05H21.65V68.4C21.65 69.4 21.3 70.25 20.6 70.95C19.9 71.65 19.05 72 18.05 72H6.7ZM25.8539 72V37H44.4539V41.6H30.5039V50.3H39.8039L38.7539 54.95H30.5039V67.35H44.4539V72H25.8539ZM53.893 72V41.65H46.943V37H65.493V41.65H58.543V72H53.893Z" fill="#D9D9D9"/>
<path d="M148.7 72C147.767 72 146.933 71.65 146.2 70.95C145.467 70.25 145.1 69.4 145.1 68.4V40.6C145.1 39.6333 145.467 38.8 146.2 38.1C146.933 37.3667 147.767 37 148.7 37H160.05C161.083 37 161.933 37.3667 162.6 38.1C163.3 38.8 163.65 39.6333 163.65 40.6V47.1L159 48.15V43.45C159 42.9833 158.833 42.5667 158.5 42.2C158.2 41.8333 157.783 41.65 157.25 41.65H151.55C151.083 41.65 150.667 41.8333 150.3 42.2C149.933 42.5667 149.75 42.9833 149.75 43.45V65.55C149.75 66.0833 149.933 66.5167 150.3 66.85C150.667 67.1833 151.083 67.35 151.55 67.35H157.25C157.783 67.35 158.2 67.1833 158.5 66.85C158.833 66.5167 159 66.0833 159 65.55V61.9L163.65 60.8V68.4C163.65 69.4 163.3 70.25 162.6 70.95C161.933 71.65 161.083 72 160.05 72H148.7ZM170.966 72C170.032 72 169.199 71.65 168.466 70.95C167.732 70.25 167.366 69.4 167.366 68.4V40.6C167.366 39.6333 167.732 38.8 168.466 38.1C169.199 37.3667 170.032 37 170.966 37H182.316C183.349 37 184.199 37.3667 184.866 38.1C185.566 38.8 185.916 39.6333 185.916 40.6V47.1L181.266 48.15V43.45C181.266 42.9833 181.099 42.5667 180.766 42.2C180.466 41.8333 180.049 41.65 179.516 41.65H173.816C173.349 41.65 172.932 41.8333 172.566 42.2C172.199 42.5667 172.016 42.9833 172.016 43.45V65.55C172.016 66.0833 172.199 66.5167 172.566 66.85C172.932 67.1833 173.349 67.35 173.816 67.35H179.516C180.049 67.35 180.466 67.1833 180.766 66.85C181.099 66.5167 181.266 66.0833 181.266 65.55V61.9L185.916 60.8V68.4C185.916 69.4 185.566 70.25 184.866 70.95C184.199 71.65 183.349 72 182.316 72H170.966ZM192.643 72C191.71 72 190.893 71.65 190.193 70.95C189.493 70.25 189.143 69.3833 189.143 68.35V40.65C189.143 39.6167 189.493 38.75 190.193 38.05C190.893 37.35 191.71 37 192.643 37H203.993C205.06 37 205.926 37.35 206.593 38.05C207.293 38.75 207.643 39.6167 207.643 40.65V68.35C207.643 69.3833 207.293 70.25 206.593 70.95C205.926 71.65 205.06 72 203.993 72H192.643ZM195.493 67.4H201.143C201.71 67.4 202.16 67.2167 202.493 66.85C202.86 66.4833 203.043 66.0333 203.043 65.5V43.5C203.043 42.9333 202.86 42.4833 202.493 42.15C202.16 41.7833 201.71 41.6 201.143 41.6H195.493C195.026 41.6 194.61 41.7833 194.243 42.15C193.91 42.4833 193.743 42.9333 193.743 43.5V65.5C193.743 66.0333 193.91 66.4833 194.243 66.85C194.61 67.2167 195.026 67.4 195.493 67.4ZM211.36 72V37H216.01L225.31 60.35V37H229.96V72H225.31L216.01 48.65V72H211.36ZM239.936 72V41.65H232.986V37H251.536V41.65H244.586V72H239.936Z" fill="#D9D9D9"/>
</svg>
