<svg width="198" height="200" viewBox="0 0 198 200" fill="none" xmlns="http://www.w3.org/2000/svg">
<rect width="197.23" height="200" fill="white"/>
<rect x="82.3338" y="62.0502" width="19.8962" height="144.033" transform="rotate(-30 82.3338 62.0502)" fill="#D9D9D9"/>
<rect x="77.1593" y="18.3516" width="17.313" height="184.576" transform="rotate(-30 77.1593 18.3516)" fill="#4F5D75"/>
<rect x="90.6405" y="68.5613" width="18.419" height="125.881" transform="rotate(30 90.6405 68.5613)" fill="#D9D9D9"/>
<rect x="104.708" y="11.9315" width="17.313" height="182.017" transform="rotate(30 104.708 11.9315)" fill="#4F5D75"/>
<rect x="84.6096" y="3.56183" width="21.6066" height="30.8208" transform="rotate(30 84.6096 3.56183)" fill="white"/>
<rect x="84.6096" y="3.56183" width="21.6066" height="30.8208" transform="rotate(30 84.6096 3.56183)" fill="white"/>
<rect x="92.7854" y="10.8033" width="21.6066" height="33.5538" transform="rotate(-30 92.7854 10.8033)" fill="white"/>
<rect x="92.7854" y="10.8033" width="21.6066" height="33.5538" transform="rotate(-30 92.7854 10.8033)" fill="white"/>
<rect x="176.302" y="151.939" width="21.6066" height="27.2853" transform="rotate(15 176.302 151.939)" fill="white"/>
<rect x="176.302" y="151.939" width="21.6066" height="27.2853" transform="rotate(15 176.302 151.939)" fill="white"/>
<rect x="147.772" y="177.978" width="21.6066" height="21.8837" fill="white"/>
<rect x="147.772" y="177.978" width="21.6066" height="21.8837" fill="white"/>
<rect x="28.658" y="178.116" width="21.6066" height="21.8837" fill="white"/>
<rect x="28.658" y="178.116" width="21.6066" height="21.8837" fill="white"/>
<rect y="154.414" width="21.6066" height="33.539" transform="rotate(-15 0 154.414)" fill="white"/>
<rect y="154.414" width="21.6066" height="33.539" transform="rotate(-15 0 154.414)" fill="white"/>
</svg>
